<svg xmlns="http://www.w3.org/2000/svg" xmlns:xlink="http://www.w3.org/1999/xlink" width="756" zoomAndPan="magnify" viewBox="0 0 567 567.000005" height="756" preserveAspectRatio="xMidYMid meet" version="1.0"><defs><g/><clipPath id="d82d89eab0"><path d="M 363 272 L 398 272 L 398 305 L 363 305 Z M 363 272 " clip-rule="nonzero"/></clipPath><clipPath id="374d0549d9"><path d="M 356.792969 276.832031 L 402.703125 266.019531 L 410.257812 298.082031 L 364.347656 308.898438 Z M 356.792969 276.832031 " clip-rule="nonzero"/></clipPath><clipPath id="9123fa42ed"><path d="M 356.792969 276.832031 L 402.703125 266.019531 L 410.257812 298.082031 L 364.347656 308.898438 Z M 356.792969 276.832031 " clip-rule="nonzero"/></clipPath><clipPath id="1674a3a430"><path d="M 352 244 L 377 244 L 377 267 L 352 267 Z M 352 244 " clip-rule="nonzero"/></clipPath><clipPath id="9b7166c09f"><path d="M 351.53125 239.574219 L 383.246094 248.480469 L 376.972656 270.824219 L 345.257812 261.917969 Z M 351.53125 239.574219 " clip-rule="nonzero"/></clipPath><clipPath id="f8bd72362c"><path d="M 351.53125 239.574219 L 383.246094 248.480469 L 376.972656 270.824219 L 345.257812 261.917969 Z M 351.53125 239.574219 " clip-rule="nonzero"/></clipPath><clipPath id="3a9f698d0e"><path d="M 375 230 L 398 230 L 398 250 L 375 250 Z M 375 230 " clip-rule="nonzero"/></clipPath><clipPath id="670cfd7744"><path d="M 373.710938 227.335938 L 402.636719 231.300781 L 399.789062 252.070312 L 370.859375 248.105469 Z M 373.710938 227.335938 " clip-rule="nonzero"/></clipPath><clipPath id="77fb9dfc49"><path d="M 373.710938 227.335938 L 402.636719 231.300781 L 399.789062 252.070312 L 370.859375 248.105469 Z M 373.710938 227.335938 " clip-rule="nonzero"/></clipPath><clipPath id="5f2c3d72b0"><path d="M 251 333 L 265 333 L 265 345 L 251 345 Z M 251 333 " clip-rule="nonzero"/></clipPath><clipPath id="2b83b91964"><path d="M 249.960938 332.863281 L 266.429688 332.464844 L 266.71875 344.441406 L 250.253906 344.839844 Z M 249.960938 332.863281 " clip-rule="nonzero"/></clipPath><clipPath id="eb05b40e22"><path d="M 249.960938 332.863281 L 266.429688 332.464844 L 266.71875 344.441406 L 250.253906 344.839844 Z M 249.960938 332.863281 " clip-rule="nonzero"/></clipPath><clipPath id="05152adc4a"><path d="M 318 333 L 331 333 L 331 345 L 318 345 Z M 318 333 " clip-rule="nonzero"/></clipPath><clipPath id="686c8c6e3a"><path d="M 316.945312 332.863281 L 333.410156 332.464844 L 333.699219 344.441406 L 317.234375 344.839844 Z M 316.945312 332.863281 " clip-rule="nonzero"/></clipPath><clipPath id="d8f74c9322"><path d="M 316.945312 332.863281 L 333.410156 332.464844 L 333.699219 344.441406 L 317.234375 344.839844 Z M 316.945312 332.863281 " clip-rule="nonzero"/></clipPath></defs><g fill="#000000" fill-opacity="1"><g transform="translate(158.462666, 314.657648)"><g><path d="M 86.609375 0 C 86.609375 0 86.859375 -0.109375 87.359375 -0.328125 C 87.859375 -0.554688 88.332031 -1.035156 88.78125 -1.765625 C 89.238281 -2.492188 89.441406 -3.632812 89.390625 -5.1875 C 89.335938 -6.75 88.785156 -8.859375 87.734375 -11.515625 L 76 -40.9375 L 29.5625 -40.9375 L 17.828125 -11.515625 C 16.773438 -8.859375 16.222656 -6.75 16.171875 -5.1875 C 16.128906 -3.632812 16.332031 -2.492188 16.78125 -1.765625 C 17.226562 -1.035156 17.703125 -0.554688 18.203125 -0.328125 C 18.703125 -0.109375 18.953125 0 18.953125 0 L 3.078125 0 C 3.078125 0 3.40625 -0.0976562 4.0625 -0.296875 C 4.71875 -0.503906 5.570312 -0.984375 6.625 -1.734375 C 7.675781 -2.484375 8.800781 -3.625 10 -5.15625 C 11.207031 -6.6875 12.363281 -8.804688 13.46875 -11.515625 L 51.84375 -107.890625 L 58.765625 -107.890625 L 97.0625 -11.515625 C 98.164062 -8.804688 99.316406 -6.6875 100.515625 -5.15625 C 101.722656 -3.625 102.851562 -2.484375 103.90625 -1.734375 C 104.957031 -0.984375 105.804688 -0.503906 106.453125 -0.296875 C 107.109375 -0.0976562 107.4375 0 107.4375 0 Z M 30.703125 -43.71875 L 74.859375 -43.71875 C 74.859375 -43.71875 74.554688 -44.484375 73.953125 -46.015625 C 73.359375 -47.546875 72.535156 -49.613281 71.484375 -52.21875 C 70.429688 -54.820312 69.25 -57.753906 67.9375 -61.015625 C 66.632812 -64.273438 65.289062 -67.632812 63.90625 -71.09375 C 62.53125 -74.5625 61.175781 -77.9375 59.84375 -81.21875 C 58.519531 -84.507812 57.332031 -87.484375 56.28125 -90.140625 C 55.226562 -92.796875 54.375 -94.925781 53.71875 -96.53125 C 53.070312 -98.132812 52.722656 -98.988281 52.671875 -99.09375 C 52.617188 -98.988281 52.28125 -98.132812 51.65625 -96.53125 C 51.03125 -94.925781 50.1875 -92.796875 49.125 -90.140625 C 48.070312 -87.484375 46.894531 -84.507812 45.59375 -81.21875 C 44.289062 -77.9375 42.945312 -74.5625 41.5625 -71.09375 C 40.1875 -67.632812 38.859375 -64.273438 37.578125 -61.015625 C 36.304688 -57.753906 35.140625 -54.820312 34.078125 -52.21875 C 33.023438 -49.613281 32.195312 -47.546875 31.59375 -46.015625 C 31 -44.484375 30.703125 -43.71875 30.703125 -43.71875 Z M 30.703125 -43.71875 "/></g></g></g><g fill="#000000" fill-opacity="1"><g transform="translate(239.2252, 315.84656)"><g><path d="M 65.375 -67.328125 C 71.53125 -66.171875 76.972656 -64.140625 81.703125 -61.234375 C 86.429688 -58.335938 90.117188 -54.625 92.765625 -50.09375 C 95.421875 -45.570312 96.75 -40.28125 96.75 -34.21875 C 96.75 -30.519531 96.195312 -26.96875 95.09375 -23.5625 C 94 -20.164062 92.113281 -17.039062 89.4375 -14.1875 C 86.757812 -11.332031 83.039062 -8.851562 78.28125 -6.75 C 73.53125 -4.65625 67.539062 -3.019531 60.3125 -1.84375 C 53.082031 -0.664062 44.363281 -0.078125 34.15625 -0.078125 L 3.078125 0 C 3.078125 0 3.363281 -0.109375 3.9375 -0.328125 C 4.507812 -0.554688 5.171875 -1.035156 5.921875 -1.765625 C 6.679688 -2.492188 7.347656 -3.628906 7.921875 -5.171875 C 8.492188 -6.722656 8.78125 -8.828125 8.78125 -11.484375 L 8.78125 -96.15625 C 8.78125 -98.800781 8.492188 -100.882812 7.921875 -102.40625 C 7.347656 -103.9375 6.679688 -105.078125 5.921875 -105.828125 C 5.171875 -106.578125 4.507812 -107.066406 3.9375 -107.296875 C 3.363281 -107.523438 3.078125 -107.640625 3.078125 -107.640625 C 3.078125 -107.640625 3.75 -107.640625 5.09375 -107.640625 C 6.445312 -107.640625 8.238281 -107.640625 10.46875 -107.640625 C 12.695312 -107.640625 15.148438 -107.640625 17.828125 -107.640625 C 20.503906 -107.640625 23.179688 -107.640625 25.859375 -107.640625 C 28.535156 -107.640625 31 -107.640625 33.25 -107.640625 C 35.5 -107.640625 37.3125 -107.640625 38.6875 -107.640625 C 40.0625 -107.640625 40.773438 -107.640625 40.828125 -107.640625 C 45.234375 -107.640625 49.5 -107.1875 53.625 -106.28125 C 57.757812 -105.382812 61.460938 -103.972656 64.734375 -102.046875 C 68.015625 -100.117188 70.617188 -97.613281 72.546875 -94.53125 C 74.472656 -91.457031 75.4375 -87.71875 75.4375 -83.3125 C 75.4375 -79.613281 74.519531 -76.347656 72.6875 -73.515625 C 70.863281 -70.691406 68.425781 -68.628906 65.375 -67.328125 Z M 18.09375 -96.078125 L 18.09375 -56.515625 C 21.195312 -58.867188 24.722656 -60.929688 28.671875 -62.703125 C 32.628906 -64.484375 36.71875 -65.882812 40.9375 -66.90625 C 45.164062 -67.9375 49.207031 -68.453125 53.0625 -68.453125 C 54.914062 -68.453125 56.742188 -68.378906 58.546875 -68.234375 C 60.796875 -70.234375 62.570312 -72.546875 63.875 -75.171875 C 65.175781 -77.796875 65.828125 -80.609375 65.828125 -83.609375 C 65.828125 -86.617188 65.175781 -89.4375 63.875 -92.0625 C 62.570312 -94.6875 60.78125 -96.984375 58.5 -98.953125 C 56.226562 -100.929688 53.578125 -102.472656 50.546875 -103.578125 C 47.523438 -104.679688 44.285156 -105.234375 40.828125 -105.234375 C 40.773438 -105.234375 40.171875 -105.234375 39.015625 -105.234375 C 37.867188 -105.234375 36.445312 -105.234375 34.75 -105.234375 C 33.050781 -105.234375 31.363281 -105.21875 29.6875 -105.1875 C 28.007812 -105.164062 26.609375 -105.15625 25.484375 -105.15625 C 24.359375 -105.15625 23.796875 -105.15625 23.796875 -105.15625 C 23.597656 -105.15625 23.195312 -105.078125 22.59375 -104.921875 C 21.988281 -104.773438 21.335938 -104.425781 20.640625 -103.875 C 19.941406 -103.320312 19.34375 -102.429688 18.84375 -101.203125 C 18.34375 -99.984375 18.09375 -98.273438 18.09375 -96.078125 Z M 33.625 -4.203125 C 43.4375 -4.304688 51.71875 -5.171875 58.46875 -6.796875 C 65.226562 -8.421875 70.65625 -10.617188 74.75 -13.390625 C 78.851562 -16.171875 81.832031 -19.382812 83.6875 -23.03125 C 85.539062 -26.6875 86.46875 -30.566406 86.46875 -34.671875 C 86.46875 -38.878906 85.640625 -42.804688 83.984375 -46.453125 C 82.335938 -50.109375 80 -53.335938 76.96875 -56.140625 C 73.945312 -58.941406 70.40625 -61.128906 66.34375 -62.703125 C 62.289062 -64.285156 57.863281 -65.078125 53.0625 -65.078125 C 49.914062 -65.078125 46.640625 -64.585938 43.234375 -63.609375 C 39.828125 -62.628906 36.519531 -61.300781 33.3125 -59.625 C 30.113281 -57.957031 27.1875 -56.070312 24.53125 -53.96875 C 21.882812 -51.863281 19.738281 -49.660156 18.09375 -47.359375 L 18.09375 -11.484375 C 18.09375 -9.929688 18.203125 -8.664062 18.421875 -7.6875 C 18.648438 -6.71875 19.238281 -5.984375 20.1875 -5.484375 C 21.132812 -4.984375 22.671875 -4.628906 24.796875 -4.421875 C 26.929688 -4.222656 29.875 -4.148438 33.625 -4.203125 Z M 33.625 -4.203125 "/></g></g></g><g fill="#000000" fill-opacity="1"><g transform="translate(321.468775, 315.84656)"><g><path d="M 92.921875 -26.046875 C 92.773438 -24.242188 92.113281 -22.203125 90.9375 -19.921875 C 89.757812 -17.648438 88.117188 -15.375 86.015625 -13.09375 C 83.910156 -10.820312 81.378906 -8.707031 78.421875 -6.75 C 75.472656 -4.800781 72.132812 -3.238281 68.40625 -2.0625 C 64.6875 -0.882812 60.597656 -0.296875 56.140625 -0.296875 C 50.285156 -0.296875 44.707031 -1.195312 39.40625 -3 C 34.101562 -4.800781 29.234375 -7.351562 24.796875 -10.65625 C 20.367188 -13.957031 16.53125 -17.847656 13.28125 -22.328125 C 10.03125 -26.804688 7.515625 -31.722656 5.734375 -37.078125 C 3.960938 -42.429688 3.078125 -48.0625 3.078125 -53.96875 C 3.078125 -59.925781 3.960938 -65.582031 5.734375 -70.9375 C 7.515625 -76.289062 10.03125 -81.203125 13.28125 -85.671875 C 16.53125 -90.148438 20.367188 -94.03125 24.796875 -97.3125 C 29.234375 -100.59375 34.101562 -103.132812 39.40625 -104.9375 C 44.707031 -106.738281 50.285156 -107.640625 56.140625 -107.640625 C 60.691406 -107.640625 64.804688 -107.195312 68.484375 -106.3125 C 72.160156 -105.4375 75.4375 -104.320312 78.3125 -102.96875 C 81.195312 -101.625 83.738281 -100.222656 85.9375 -98.765625 C 88.144531 -97.316406 90.046875 -96.003906 91.640625 -94.828125 C 93.242188 -93.660156 94.625 -92.828125 95.78125 -92.328125 L 83.921875 -81.890625 C 84.421875 -84.691406 84.101562 -87.367188 82.96875 -89.921875 C 81.84375 -92.472656 80.015625 -94.734375 77.484375 -96.703125 C 74.960938 -98.679688 71.835938 -100.234375 68.109375 -101.359375 C 64.378906 -102.484375 60.164062 -103.046875 55.46875 -103.046875 C 50.757812 -103.046875 46.28125 -102.21875 42.03125 -100.5625 C 37.78125 -98.914062 33.878906 -96.59375 30.328125 -93.59375 C 26.773438 -90.59375 23.679688 -87.050781 21.046875 -82.96875 C 18.421875 -78.894531 16.394531 -74.414062 14.96875 -69.53125 C 13.539062 -64.65625 12.828125 -59.515625 12.828125 -54.109375 C 12.828125 -48.710938 13.539062 -43.570312 14.96875 -38.6875 C 16.394531 -33.8125 18.421875 -29.332031 21.046875 -25.25 C 23.679688 -21.175781 26.773438 -17.648438 30.328125 -14.671875 C 33.878906 -11.691406 37.78125 -9.375 42.03125 -7.71875 C 46.28125 -6.070312 50.757812 -5.25 55.46875 -5.25 C 60.164062 -5.25 64.40625 -5.820312 68.1875 -6.96875 C 71.96875 -8.125 75.304688 -9.601562 78.203125 -11.40625 C 81.109375 -13.207031 83.570312 -15.082031 85.59375 -17.03125 C 87.625 -18.988281 89.253906 -20.78125 90.484375 -22.40625 C 91.710938 -24.03125 92.523438 -25.242188 92.921875 -26.046875 Z M 92.921875 -26.046875 "/></g></g></g><g clip-path="url(#d82d89eab0)"><g clip-path="url(#374d0549d9)"><g clip-path="url(#9123fa42ed)"><path fill="#4f6fa1" d="M 380.304688 282.457031 C 381.453125 274.921875 387.632812 269.570312 394.089844 273.503906 C 406.09375 280.789062 385.792969 304.003906 385.792969 304.003906 C 370.984375 296.765625 359.941406 290.167969 365.410156 280.671875 C 368.46875 275.34375 375.890625 276.558594 380.304688 282.457031 Z M 380.304688 282.457031 " fill-opacity="1" fill-rule="nonzero"/></g></g></g><g clip-path="url(#1674a3a430)"><g clip-path="url(#9b7166c09f)"><g clip-path="url(#f8bd72362c)"><path fill="#c5fca6" d="M 364.125 251.066406 C 367.402344 246.808594 373.042969 245.613281 375.6875 250.246094 C 380.609375 258.839844 360.15625 266.234375 360.15625 266.234375 C 353.492188 256.714844 348.925781 248.878906 355.542969 244.882812 C 359.25 242.636719 363.414062 245.921875 364.125 251.066406 Z M 364.125 251.066406 " fill-opacity="1" fill-rule="nonzero"/></g></g></g><g clip-path="url(#3a9f698d0e)"><g clip-path="url(#670cfd7744)"><g clip-path="url(#77fb9dfc49)"><path fill="#789dd8" d="M 386.144531 235.890625 C 388.503906 231.757812 393.308594 230.023438 396.1875 233.765625 C 401.546875 240.707031 384.503906 249.679688 384.503906 249.679688 C 377.5 242.136719 372.546875 235.8125 377.863281 231.507812 C 380.84375 229.085938 384.894531 231.464844 386.144531 235.890625 Z M 386.144531 235.890625 " fill-opacity="1" fill-rule="nonzero"/></g></g></g><g fill="#000000" fill-opacity="1"><g transform="translate(170.008854, 345.260965)"><g><path d="M -0.4375 0 L -0.4375 -0.34375 C -0.0703125 -0.457031 0.28125 -0.691406 0.625 -1.046875 C 0.976562 -1.410156 1.351562 -2.085938 1.75 -3.078125 L 6.90625 -15.84375 C 7.0625 -16.257812 7.039062 -16.664062 6.84375 -17.0625 L 6.609375 -17.625 L 8.578125 -18.5 L 15 -3.0625 C 15.40625 -2.082031 15.769531 -1.410156 16.09375 -1.046875 C 16.414062 -0.691406 16.710938 -0.457031 16.984375 -0.34375 L 16.984375 0 L 12.9375 0 L 12.9375 -0.34375 C 13.34375 -0.457031 13.507812 -0.691406 13.4375 -1.046875 C 13.363281 -1.410156 13.117188 -2.082031 12.703125 -3.0625 L 11.109375 -6.90625 L 3.734375 -6.90625 L 2.203125 -3.078125 C 1.535156 -1.421875 1.640625 -0.507812 2.515625 -0.34375 L 2.515625 0 Z M 3.890625 -7.296875 L 10.953125 -7.296875 L 7.375 -15.890625 Z M 3.890625 -7.296875 "/></g></g></g><g fill="#000000" fill-opacity="1"><g transform="translate(186.760444, 345.260965)"><g><path d="M 5.703125 0.265625 C 4.328125 0.265625 3.316406 -0.148438 2.671875 -0.984375 C 2.023438 -1.828125 1.703125 -3 1.703125 -4.5 L 1.703125 -9.328125 C 1.703125 -9.941406 1.660156 -10.398438 1.578125 -10.703125 C 1.503906 -11.003906 1.390625 -11.222656 1.234375 -11.359375 C 1.085938 -11.503906 0.894531 -11.628906 0.65625 -11.734375 L 0.65625 -12.03125 L 3.5 -13.28125 L 3.734375 -13.09375 L 3.734375 -4.96875 C 3.734375 -3.488281 3.957031 -2.398438 4.40625 -1.703125 C 4.863281 -1.003906 5.617188 -0.65625 6.671875 -0.65625 C 7.429688 -0.65625 8.160156 -0.867188 8.859375 -1.296875 C 9.554688 -1.722656 10.203125 -2.25 10.796875 -2.875 L 10.796875 -9.328125 C 10.796875 -9.941406 10.753906 -10.398438 10.671875 -10.703125 C 10.597656 -11.003906 10.484375 -11.222656 10.328125 -11.359375 C 10.179688 -11.503906 9.988281 -11.628906 9.75 -11.734375 L 9.75 -12.03125 L 12.59375 -13.28125 L 12.828125 -13.09375 L 12.828125 -3.3125 C 12.828125 -2.25 12.898438 -1.515625 13.046875 -1.109375 C 13.203125 -0.710938 13.476562 -0.457031 13.875 -0.34375 L 13.875 0 L 11.65625 0 C 11.375 0 11.160156 -0.078125 11.015625 -0.234375 C 10.867188 -0.390625 10.796875 -0.660156 10.796875 -1.046875 L 10.796875 -2.375 C 10.128906 -1.675781 9.351562 -1.0625 8.46875 -0.53125 C 7.59375 0 6.671875 0.265625 5.703125 0.265625 Z M 5.703125 0.265625 "/></g></g></g><g fill="#000000" fill-opacity="1"><g transform="translate(201.552018, 345.260965)"><g><path d="M 0.84375 0 L 0.84375 -0.34375 C 1.238281 -0.457031 1.507812 -0.710938 1.65625 -1.109375 C 1.800781 -1.515625 1.875 -2.25 1.875 -3.3125 L 1.875 -9.328125 C 1.875 -9.941406 1.835938 -10.398438 1.765625 -10.703125 C 1.703125 -11.003906 1.59375 -11.222656 1.4375 -11.359375 C 1.28125 -11.503906 1.082031 -11.628906 0.84375 -11.734375 L 0.84375 -12.03125 L 3.71875 -13.28125 L 3.921875 -13.09375 L 3.921875 -10.84375 C 4.691406 -11.457031 5.554688 -12.007812 6.515625 -12.5 C 7.472656 -13 8.457031 -13.25 9.46875 -13.25 C 10.75 -13.25 11.753906 -12.875 12.484375 -12.125 C 13.222656 -11.375 13.59375 -10.234375 13.59375 -8.703125 L 13.59375 -3.3125 C 13.59375 -2.25 13.664062 -1.515625 13.8125 -1.109375 C 13.957031 -0.710938 14.234375 -0.457031 14.640625 -0.34375 L 14.640625 0 L 10.515625 0 L 10.515625 -0.34375 C 10.910156 -0.457031 11.179688 -0.710938 11.328125 -1.109375 C 11.472656 -1.515625 11.546875 -2.25 11.546875 -3.3125 L 11.546875 -8.1875 C 11.546875 -9.539062 11.257812 -10.578125 10.6875 -11.296875 C 10.113281 -12.023438 9.253906 -12.390625 8.109375 -12.390625 C 7.390625 -12.390625 6.675781 -12.203125 5.96875 -11.828125 C 5.269531 -11.453125 4.585938 -10.988281 3.921875 -10.4375 L 3.921875 -3.3125 C 3.921875 -2.25 4 -1.515625 4.15625 -1.109375 C 4.3125 -0.710938 4.582031 -0.457031 4.96875 -0.34375 L 4.96875 0 Z M 0.84375 0 "/></g></g></g><g fill="#000000" fill-opacity="1"><g transform="translate(216.813995, 345.260965)"><g><path d="M 4.9375 0.265625 C 4.125 0.265625 3.476562 -0.015625 3 -0.578125 C 2.53125 -1.148438 2.296875 -2.117188 2.296875 -3.484375 L 2.296875 -12.703125 L 0.625 -12.703125 L 0.625 -13.078125 L 3.96875 -16.28125 L 4.34375 -16.28125 L 4.34375 -13.078125 L 8.3125 -13.078125 L 8.1875 -12.703125 L 4.34375 -12.703125 L 4.34375 -3.484375 C 4.34375 -2.585938 4.507812 -1.953125 4.84375 -1.578125 C 5.1875 -1.203125 5.640625 -1.015625 6.203125 -1.015625 C 6.566406 -1.015625 6.960938 -1.113281 7.390625 -1.3125 C 7.828125 -1.519531 8.265625 -1.875 8.703125 -2.375 L 8.9375 -2.140625 C 8.382812 -1.492188 7.769531 -0.929688 7.09375 -0.453125 C 6.425781 0.0234375 5.707031 0.265625 4.9375 0.265625 Z M 4.9375 0.265625 "/></g></g></g><g fill="#000000" fill-opacity="1"><g transform="translate(225.80393, 345.260965)"><g><path d="M 0.84375 0 L 0.84375 -0.34375 C 1.238281 -0.457031 1.507812 -0.710938 1.65625 -1.109375 C 1.800781 -1.515625 1.875 -2.25 1.875 -3.3125 L 1.875 -9.328125 C 1.875 -9.941406 1.835938 -10.398438 1.765625 -10.703125 C 1.703125 -11.003906 1.59375 -11.222656 1.4375 -11.359375 C 1.28125 -11.503906 1.082031 -11.628906 0.84375 -11.734375 L 0.84375 -12.03125 L 3.71875 -13.28125 L 3.921875 -13.09375 L 3.921875 -3.3125 C 3.921875 -2.25 4 -1.515625 4.15625 -1.109375 C 4.3125 -0.710938 4.582031 -0.457031 4.96875 -0.34375 L 4.96875 0 Z M 1.3125 -16.3125 C 1.3125 -16.726562 1.445312 -17.078125 1.71875 -17.359375 C 2 -17.640625 2.34375 -17.78125 2.75 -17.78125 C 3.164062 -17.78125 3.507812 -17.640625 3.78125 -17.359375 C 4.050781 -17.078125 4.1875 -16.726562 4.1875 -16.3125 C 4.1875 -15.925781 4.046875 -15.585938 3.765625 -15.296875 C 3.484375 -15.015625 3.144531 -14.875 2.75 -14.875 C 2.34375 -14.875 2 -15.015625 1.71875 -15.296875 C 1.445312 -15.585938 1.3125 -15.925781 1.3125 -16.3125 Z M 1.3125 -16.3125 "/></g></g></g><g fill="#000000" fill-opacity="1"><g transform="translate(231.683971, 345.260965)"><g><path d="M 7.140625 0.265625 C 6.421875 0.265625 5.695312 0.132812 4.96875 -0.125 C 4.238281 -0.382812 3.566406 -0.78125 2.953125 -1.3125 C 2.335938 -1.851562 1.847656 -2.519531 1.484375 -3.3125 C 1.117188 -4.113281 0.9375 -5.054688 0.9375 -6.140625 C 0.9375 -7.566406 1.253906 -8.8125 1.890625 -9.875 C 2.523438 -10.9375 3.363281 -11.765625 4.40625 -12.359375 C 5.457031 -12.953125 6.59375 -13.25 7.8125 -13.25 C 8.914062 -13.25 9.851562 -13.035156 10.625 -12.609375 C 11.40625 -12.179688 12.007812 -11.617188 12.4375 -10.921875 C 12.863281 -10.222656 13.082031 -9.457031 13.09375 -8.625 L 2.875 -8.625 C 2.820312 -8.238281 2.796875 -7.835938 2.796875 -7.421875 C 2.796875 -6.234375 3.023438 -5.179688 3.484375 -4.265625 C 3.953125 -3.359375 4.609375 -2.648438 5.453125 -2.140625 C 6.296875 -1.640625 7.285156 -1.390625 8.421875 -1.390625 C 9.429688 -1.390625 10.3125 -1.597656 11.0625 -2.015625 C 11.8125 -2.429688 12.484375 -2.976562 13.078125 -3.65625 L 13.3125 -3.421875 C 12.875 -2.816406 12.347656 -2.226562 11.734375 -1.65625 C 11.128906 -1.09375 10.445312 -0.628906 9.6875 -0.265625 C 8.925781 0.0859375 8.078125 0.265625 7.140625 0.265625 Z M 2.953125 -8.96875 L 11 -8.96875 C 10.914062 -9.5625 10.703125 -10.148438 10.359375 -10.734375 C 10.023438 -11.316406 9.570312 -11.800781 9 -12.1875 C 8.4375 -12.582031 7.753906 -12.78125 6.953125 -12.78125 C 5.835938 -12.800781 4.941406 -12.441406 4.265625 -11.703125 C 3.597656 -10.972656 3.160156 -10.0625 2.953125 -8.96875 Z M 2.953125 -8.96875 "/></g></g></g><g fill="#000000" fill-opacity="1"><g transform="translate(245.719074, 345.260965)"><g/></g></g><g fill="#000000" fill-opacity="1"><g transform="translate(251.207113, 345.260965)"><g/></g></g><g fill="#000000" fill-opacity="1"><g transform="translate(256.695153, 345.260965)"><g/></g></g><g fill="#000000" fill-opacity="1"><g transform="translate(262.183192, 345.260965)"><g/></g></g><g fill="#000000" fill-opacity="1"><g transform="translate(267.676441, 345.260965)"><g><path d="M 1.328125 0 L 1.328125 -0.34375 C 1.734375 -0.457031 2.007812 -0.710938 2.15625 -1.109375 C 2.300781 -1.515625 2.375 -2.25 2.375 -3.3125 L 2.375 -14.984375 C 2.375 -16.054688 2.300781 -16.789062 2.15625 -17.1875 C 2.007812 -17.582031 1.734375 -17.835938 1.328125 -17.953125 L 1.328125 -18.296875 L 7.453125 -18.296875 C 9.472656 -18.296875 10.921875 -17.984375 11.796875 -17.359375 C 12.679688 -16.742188 13.125 -15.90625 13.125 -14.84375 C 13.125 -13.957031 12.804688 -13.144531 12.171875 -12.40625 C 11.546875 -11.675781 10.488281 -11.175781 9 -10.90625 C 10.425781 -10.832031 11.59375 -10.566406 12.5 -10.109375 C 13.40625 -9.660156 14.070312 -9.078125 14.5 -8.359375 C 14.9375 -7.648438 15.15625 -6.867188 15.15625 -6.015625 C 15.175781 -5.285156 15.035156 -4.5625 14.734375 -3.84375 C 14.441406 -3.125 13.960938 -2.476562 13.296875 -1.90625 C 12.640625 -1.332031 11.765625 -0.867188 10.671875 -0.515625 C 9.585938 -0.171875 8.253906 0 6.671875 0 Z M 4.515625 -2.671875 C 4.515625 -1.722656 4.601562 -1.101562 4.78125 -0.8125 C 4.957031 -0.53125 5.320312 -0.390625 5.875 -0.390625 L 6.90625 -0.390625 C 8.332031 -0.390625 9.472656 -0.601562 10.328125 -1.03125 C 11.179688 -1.457031 11.800781 -2.046875 12.1875 -2.796875 C 12.582031 -3.546875 12.78125 -4.398438 12.78125 -5.359375 C 12.78125 -6.367188 12.585938 -7.257812 12.203125 -8.03125 C 11.816406 -8.8125 11.210938 -9.425781 10.390625 -9.875 C 9.566406 -10.332031 8.5 -10.5625 7.1875 -10.5625 L 4.515625 -10.5625 Z M 4.515625 -10.953125 L 6.953125 -10.953125 C 8.242188 -10.953125 9.195312 -11.28125 9.8125 -11.9375 C 10.4375 -12.601562 10.75 -13.414062 10.75 -14.375 C 10.75 -15.457031 10.375 -16.316406 9.625 -16.953125 C 8.882812 -17.585938 7.847656 -17.90625 6.515625 -17.90625 L 4.515625 -17.90625 Z M 4.515625 -10.953125 "/></g></g></g><g fill="#000000" fill-opacity="1"><g transform="translate(283.670156, 345.260965)"><g><path d="M 7.796875 0.265625 C 6.953125 0.265625 6.125 0.132812 5.3125 -0.125 C 4.507812 -0.382812 3.773438 -0.785156 3.109375 -1.328125 C 2.453125 -1.867188 1.925781 -2.554688 1.53125 -3.390625 C 1.132812 -4.234375 0.9375 -5.222656 0.9375 -6.359375 C 0.9375 -7.710938 1.257812 -8.90625 1.90625 -9.9375 C 2.550781 -10.976562 3.394531 -11.789062 4.4375 -12.375 C 5.488281 -12.957031 6.609375 -13.25 7.796875 -13.25 C 8.609375 -13.25 9.414062 -13.125 10.21875 -12.875 C 11.019531 -12.625 11.75 -12.226562 12.40625 -11.6875 C 13.070312 -11.144531 13.601562 -10.453125 14 -9.609375 C 14.40625 -8.773438 14.609375 -7.773438 14.609375 -6.609375 C 14.609375 -5.492188 14.40625 -4.507812 14 -3.65625 C 13.59375 -2.800781 13.046875 -2.082031 12.359375 -1.5 C 11.679688 -0.914062 10.941406 -0.472656 10.140625 -0.171875 C 9.335938 0.117188 8.554688 0.265625 7.796875 0.265625 Z M 2.953125 -7.84375 C 2.953125 -7.007812 3.082031 -6.148438 3.34375 -5.265625 C 3.601562 -4.390625 3.976562 -3.578125 4.46875 -2.828125 C 4.957031 -2.078125 5.546875 -1.460938 6.234375 -0.984375 C 6.921875 -0.515625 7.703125 -0.28125 8.578125 -0.28125 C 9.515625 -0.28125 10.28125 -0.503906 10.875 -0.953125 C 11.46875 -1.398438 11.90625 -1.988281 12.1875 -2.71875 C 12.476562 -3.445312 12.625 -4.234375 12.625 -5.078125 C 12.625 -5.910156 12.484375 -6.785156 12.203125 -7.703125 C 11.929688 -8.617188 11.535156 -9.46875 11.015625 -10.25 C 10.503906 -11.03125 9.890625 -11.65625 9.171875 -12.125 C 8.460938 -12.59375 7.679688 -12.800781 6.828125 -12.75 C 5.929688 -12.71875 5.195312 -12.472656 4.625 -12.015625 C 4.050781 -11.566406 3.628906 -10.976562 3.359375 -10.25 C 3.085938 -9.519531 2.953125 -8.71875 2.953125 -7.84375 Z M 2.953125 -7.84375 "/></g></g></g><g fill="#000000" fill-opacity="1"><g transform="translate(299.402537, 345.260965)"><g><path d="M 7.796875 0.265625 C 6.953125 0.265625 6.125 0.132812 5.3125 -0.125 C 4.507812 -0.382812 3.773438 -0.785156 3.109375 -1.328125 C 2.453125 -1.867188 1.925781 -2.554688 1.53125 -3.390625 C 1.132812 -4.234375 0.9375 -5.222656 0.9375 -6.359375 C 0.9375 -7.710938 1.257812 -8.90625 1.90625 -9.9375 C 2.550781 -10.976562 3.394531 -11.789062 4.4375 -12.375 C 5.488281 -12.957031 6.609375 -13.25 7.796875 -13.25 C 8.609375 -13.25 9.414062 -13.125 10.21875 -12.875 C 11.019531 -12.625 11.75 -12.226562 12.40625 -11.6875 C 13.070312 -11.144531 13.601562 -10.453125 14 -9.609375 C 14.40625 -8.773438 14.609375 -7.773438 14.609375 -6.609375 C 14.609375 -5.492188 14.40625 -4.507812 14 -3.65625 C 13.59375 -2.800781 13.046875 -2.082031 12.359375 -1.5 C 11.679688 -0.914062 10.941406 -0.472656 10.140625 -0.171875 C 9.335938 0.117188 8.554688 0.265625 7.796875 0.265625 Z M 2.953125 -7.84375 C 2.953125 -7.007812 3.082031 -6.148438 3.34375 -5.265625 C 3.601562 -4.390625 3.976562 -3.578125 4.46875 -2.828125 C 4.957031 -2.078125 5.546875 -1.460938 6.234375 -0.984375 C 6.921875 -0.515625 7.703125 -0.28125 8.578125 -0.28125 C 9.515625 -0.28125 10.28125 -0.503906 10.875 -0.953125 C 11.46875 -1.398438 11.90625 -1.988281 12.1875 -2.71875 C 12.476562 -3.445312 12.625 -4.234375 12.625 -5.078125 C 12.625 -5.910156 12.484375 -6.785156 12.203125 -7.703125 C 11.929688 -8.617188 11.535156 -9.46875 11.015625 -10.25 C 10.503906 -11.03125 9.890625 -11.65625 9.171875 -12.125 C 8.460938 -12.59375 7.679688 -12.800781 6.828125 -12.75 C 5.929688 -12.71875 5.195312 -12.472656 4.625 -12.015625 C 4.050781 -11.566406 3.628906 -10.976562 3.359375 -10.25 C 3.085938 -9.519531 2.953125 -8.71875 2.953125 -7.84375 Z M 2.953125 -7.84375 "/></g></g></g><g fill="#000000" fill-opacity="1"><g transform="translate(315.13571, 345.260965)"><g/></g></g><g fill="#000000" fill-opacity="1"><g transform="translate(320.623749, 345.260965)"><g/></g></g><g fill="#000000" fill-opacity="1"><g transform="translate(326.111789, 345.260965)"><g/></g></g><g fill="#000000" fill-opacity="1"><g transform="translate(331.599828, 345.260965)"><g/></g></g><g fill="#000000" fill-opacity="1"><g transform="translate(337.093073, 345.260965)"><g><path d="M 11.21875 0.265625 C 9.207031 0.265625 7.46875 -0.0859375 6 -0.796875 C 4.53125 -1.515625 3.390625 -2.550781 2.578125 -3.90625 C 1.765625 -5.257812 1.359375 -6.882812 1.359375 -8.78125 C 1.359375 -10.175781 1.609375 -11.460938 2.109375 -12.640625 C 2.617188 -13.816406 3.335938 -14.84375 4.265625 -15.71875 C 5.203125 -16.601562 6.3125 -17.285156 7.59375 -17.765625 C 8.875 -18.242188 10.28125 -18.484375 11.8125 -18.484375 C 12.5625 -18.484375 13.320312 -18.414062 14.09375 -18.28125 C 14.875 -18.15625 15.585938 -17.992188 16.234375 -17.796875 C 16.878906 -17.609375 17.367188 -17.398438 17.703125 -17.171875 L 17.796875 -14.0625 L 17.546875 -14.015625 C 17.035156 -15.191406 16.191406 -16.144531 15.015625 -16.875 C 13.835938 -17.613281 12.472656 -17.984375 10.921875 -17.984375 C 9.546875 -17.984375 8.300781 -17.675781 7.1875 -17.0625 C 6.070312 -16.457031 5.1875 -15.550781 4.53125 -14.34375 C 3.882812 -13.144531 3.5625 -11.65625 3.5625 -9.875 C 3.5625 -8.65625 3.738281 -7.46875 4.09375 -6.3125 C 4.445312 -5.164062 4.976562 -4.132812 5.6875 -3.21875 C 6.40625 -2.3125 7.285156 -1.59375 8.328125 -1.0625 C 9.378906 -0.53125 10.585938 -0.265625 11.953125 -0.265625 C 13.359375 -0.265625 14.585938 -0.628906 15.640625 -1.359375 C 16.703125 -2.085938 17.484375 -3.160156 17.984375 -4.578125 L 18.265625 -4.546875 L 17.859375 -1.15625 C 17.242188 -0.820312 16.347656 -0.5 15.171875 -0.1875 C 13.992188 0.113281 12.675781 0.265625 11.21875 0.265625 Z M 11.21875 0.265625 "/></g></g></g><g fill="#000000" fill-opacity="1"><g transform="translate(356.458017, 345.260965)"><g><path d="M 0.84375 0 L 0.84375 -0.34375 C 1.238281 -0.457031 1.507812 -0.710938 1.65625 -1.109375 C 1.800781 -1.515625 1.875 -2.25 1.875 -3.3125 L 1.875 -9.328125 C 1.875 -9.941406 1.832031 -10.398438 1.75 -10.703125 C 1.675781 -11.003906 1.566406 -11.222656 1.421875 -11.359375 C 1.273438 -11.503906 1.082031 -11.628906 0.84375 -11.734375 L 0.84375 -12.03125 L 3.6875 -13.28125 L 3.921875 -13.09375 L 3.921875 -9.828125 C 4.128906 -10.335938 4.398438 -10.804688 4.734375 -11.234375 C 5.078125 -11.671875 5.441406 -12.03125 5.828125 -12.3125 C 6.234375 -12.601562 6.675781 -12.832031 7.15625 -13 C 7.632812 -13.164062 8.1875 -13.25 8.8125 -13.25 C 9.332031 -13.25 9.742188 -13.1875 10.046875 -13.0625 C 10.359375 -12.945312 10.515625 -12.773438 10.515625 -12.546875 C 10.515625 -12.265625 10.378906 -11.945312 10.109375 -11.59375 C 9.835938 -11.238281 9.46875 -11.0625 9 -11.0625 C 8.644531 -11.0625 8.203125 -11.125 7.671875 -11.25 C 7.140625 -11.382812 6.488281 -11.566406 5.71875 -11.796875 C 5.476562 -11.617188 5.222656 -11.347656 4.953125 -10.984375 C 4.679688 -10.628906 4.453125 -10.234375 4.265625 -9.796875 C 4.085938 -9.367188 3.984375 -8.941406 3.953125 -8.515625 L 3.921875 -8.515625 L 3.921875 -3.3125 C 3.921875 -2.25 3.992188 -1.515625 4.140625 -1.109375 C 4.285156 -0.710938 4.5625 -0.457031 4.96875 -0.34375 L 4.96875 0 Z M 0.84375 0 "/></g></g></g><g fill="#000000" fill-opacity="1"><g transform="translate(367.434096, 345.260965)"><g><path d="M 10.953125 0 C 10.429688 0 10.171875 -0.257812 10.171875 -0.78125 L 10.171875 -5.484375 C 9.910156 -4.421875 9.5 -3.453125 8.9375 -2.578125 C 8.382812 -1.710938 7.734375 -1.019531 6.984375 -0.5 C 6.242188 0.0078125 5.441406 0.265625 4.578125 0.265625 C 3.929688 0.265625 3.328125 0.132812 2.765625 -0.125 C 2.210938 -0.382812 1.765625 -0.765625 1.421875 -1.265625 C 1.085938 -1.773438 0.921875 -2.40625 0.921875 -3.15625 C 0.921875 -4.0625 1.1875 -4.800781 1.71875 -5.375 C 2.257812 -5.957031 2.976562 -6.429688 3.875 -6.796875 C 4.78125 -7.160156 5.742188 -7.484375 6.765625 -7.765625 L 10.171875 -8.671875 C 10.097656 -9.953125 9.75 -10.890625 9.125 -11.484375 C 8.5 -12.085938 7.628906 -12.390625 6.515625 -12.390625 C 5.722656 -12.390625 4.957031 -12.203125 4.21875 -11.828125 C 3.476562 -11.453125 2.78125 -10.863281 2.125 -10.0625 L 1.875 -10.265625 C 2.625 -11.191406 3.472656 -11.921875 4.421875 -12.453125 C 5.378906 -12.984375 6.421875 -13.25 7.546875 -13.25 C 9.140625 -13.25 10.3125 -12.832031 11.0625 -12 C 11.8125 -11.175781 12.1875 -10.023438 12.1875 -8.546875 L 12.1875 -3.3125 C 12.1875 -2.25 12.257812 -1.515625 12.40625 -1.109375 C 12.550781 -0.710938 12.828125 -0.457031 13.234375 -0.34375 L 13.234375 0 Z M 2.875 -3.890625 C 2.875 -3.035156 3.128906 -2.382812 3.640625 -1.9375 C 4.160156 -1.5 4.796875 -1.28125 5.546875 -1.28125 C 6.242188 -1.28125 6.875 -1.472656 7.4375 -1.859375 C 8 -2.253906 8.476562 -2.765625 8.875 -3.390625 C 9.28125 -4.023438 9.597656 -4.707031 9.828125 -5.4375 C 10.054688 -6.164062 10.171875 -6.867188 10.171875 -7.546875 L 10.171875 -8.34375 L 6.875 -7.453125 C 6.226562 -7.273438 5.59375 -7.039062 4.96875 -6.75 C 4.351562 -6.46875 3.847656 -6.097656 3.453125 -5.640625 C 3.066406 -5.191406 2.875 -4.609375 2.875 -3.890625 Z M 2.875 -3.890625 "/></g></g></g><g fill="#000000" fill-opacity="1"><g transform="translate(381.284861, 345.260965)"><g><path d="M 1.015625 0 L 1.015625 -0.34375 C 1.421875 -0.457031 1.695312 -0.710938 1.84375 -1.109375 C 1.988281 -1.515625 2.0625 -2.25 2.0625 -3.3125 L 2.0625 -12.515625 L 0.546875 -12.515625 L 0.671875 -12.890625 L 2.0625 -12.890625 C 2.113281 -13.859375 2.363281 -14.789062 2.8125 -15.6875 C 3.257812 -16.59375 3.847656 -17.394531 4.578125 -18.09375 C 5.304688 -18.800781 6.144531 -19.359375 7.09375 -19.765625 C 8.039062 -20.179688 9.046875 -20.390625 10.109375 -20.390625 C 11.296875 -20.390625 11.890625 -20.160156 11.890625 -19.703125 C 11.890625 -19.546875 11.816406 -19.347656 11.671875 -19.109375 C 11.535156 -18.878906 11.34375 -18.664062 11.09375 -18.46875 C 10.84375 -18.28125 10.535156 -18.1875 10.171875 -18.1875 C 9.578125 -18.1875 8.984375 -18.269531 8.390625 -18.4375 C 7.796875 -18.601562 7.125 -18.816406 6.375 -19.078125 C 6.082031 -18.921875 5.753906 -18.691406 5.390625 -18.390625 C 5.035156 -18.085938 4.734375 -17.628906 4.484375 -17.015625 C 4.234375 -16.410156 4.109375 -15.554688 4.109375 -14.453125 L 4.109375 -12.890625 L 7.53125 -12.890625 L 7.375 -12.515625 L 4.109375 -12.515625 L 4.109375 -3.3125 C 4.109375 -2.25 4.179688 -1.515625 4.328125 -1.109375 C 4.472656 -0.710938 4.75 -0.457031 5.15625 -0.34375 L 5.15625 0 Z M 1.015625 0 "/></g></g></g><g fill="#000000" fill-opacity="1"><g transform="translate(389.229449, 345.260965)"><g><path d="M 4.9375 0.265625 C 4.125 0.265625 3.476562 -0.015625 3 -0.578125 C 2.53125 -1.148438 2.296875 -2.117188 2.296875 -3.484375 L 2.296875 -12.703125 L 0.625 -12.703125 L 0.625 -13.078125 L 3.96875 -16.28125 L 4.34375 -16.28125 L 4.34375 -13.078125 L 8.3125 -13.078125 L 8.1875 -12.703125 L 4.34375 -12.703125 L 4.34375 -3.484375 C 4.34375 -2.585938 4.507812 -1.953125 4.84375 -1.578125 C 5.1875 -1.203125 5.640625 -1.015625 6.203125 -1.015625 C 6.566406 -1.015625 6.960938 -1.113281 7.390625 -1.3125 C 7.828125 -1.519531 8.265625 -1.875 8.703125 -2.375 L 8.9375 -2.140625 C 8.382812 -1.492188 7.769531 -0.929688 7.09375 -0.453125 C 6.425781 0.0234375 5.707031 0.265625 4.9375 0.265625 Z M 4.9375 0.265625 "/></g></g></g><g fill="#000000" fill-opacity="1"><g transform="translate(398.219384, 345.260965)"><g><path d="M 5.90625 0.234375 C 4.863281 0.234375 3.914062 0.101562 3.0625 -0.15625 C 2.21875 -0.414062 1.582031 -0.6875 1.15625 -0.96875 L 0.921875 -4.125 L 1.15625 -4.1875 C 1.707031 -2.945312 2.4375 -1.972656 3.34375 -1.265625 C 4.25 -0.554688 5.296875 -0.195312 6.484375 -0.1875 C 7.304688 -0.1875 7.984375 -0.40625 8.515625 -0.84375 C 9.046875 -1.289062 9.3125 -1.878906 9.3125 -2.609375 C 9.3125 -3.242188 9.128906 -3.75 8.765625 -4.125 C 8.410156 -4.507812 7.941406 -4.820312 7.359375 -5.0625 C 6.773438 -5.3125 6.144531 -5.539062 5.46875 -5.75 C 4.644531 -6.007812 3.910156 -6.28125 3.265625 -6.5625 C 2.617188 -6.851562 2.113281 -7.234375 1.75 -7.703125 C 1.382812 -8.179688 1.203125 -8.8125 1.203125 -9.59375 C 1.203125 -10.625 1.613281 -11.488281 2.4375 -12.1875 C 3.269531 -12.894531 4.441406 -13.25 5.953125 -13.25 C 6.804688 -13.25 7.59375 -13.175781 8.3125 -13.03125 C 9.039062 -12.882812 9.609375 -12.722656 10.015625 -12.546875 L 10.109375 -9.875 L 9.859375 -9.828125 C 9.441406 -10.765625 8.835938 -11.507812 8.046875 -12.0625 C 7.265625 -12.625 6.410156 -12.90625 5.484375 -12.90625 C 4.597656 -12.90625 3.890625 -12.707031 3.359375 -12.3125 C 2.828125 -11.914062 2.5625 -11.382812 2.5625 -10.71875 C 2.5625 -10.175781 2.726562 -9.722656 3.0625 -9.359375 C 3.40625 -8.992188 3.859375 -8.679688 4.421875 -8.421875 C 4.992188 -8.171875 5.617188 -7.9375 6.296875 -7.71875 C 6.804688 -7.550781 7.316406 -7.375 7.828125 -7.1875 C 8.335938 -7.007812 8.804688 -6.785156 9.234375 -6.515625 C 9.660156 -6.242188 10.007812 -5.894531 10.28125 -5.46875 C 10.550781 -5.050781 10.6875 -4.507812 10.6875 -3.84375 C 10.6875 -3.113281 10.507812 -2.4375 10.15625 -1.8125 C 9.800781 -1.195312 9.265625 -0.707031 8.546875 -0.34375 C 7.828125 0.0195312 6.945312 0.210938 5.90625 0.234375 Z M 5.90625 0.234375 "/></g></g></g><g clip-path="url(#5f2c3d72b0)"><g clip-path="url(#2b83b91964)"><g clip-path="url(#eb05b40e22)"><path fill="#000000" d="M 257.699219 336.527344 C 258.644531 334 261.175781 332.59375 263.128906 334.425781 C 266.757812 337.828125 258.03125 344.394531 258.03125 344.394531 C 253.425781 340.804688 250.078125 337.714844 252.664062 334.824219 C 254.117188 333.199219 256.597656 334.160156 257.699219 336.527344 Z M 257.699219 336.527344 " fill-opacity="1" fill-rule="nonzero"/></g></g></g><g clip-path="url(#05152adc4a)"><g clip-path="url(#686c8c6e3a)"><g clip-path="url(#d8f74c9322)"><path fill="#000000" d="M 324.679688 336.527344 C 325.625 334 328.15625 332.59375 330.109375 334.425781 C 333.738281 337.828125 325.011719 344.394531 325.011719 344.394531 C 320.40625 340.804688 317.0625 337.714844 319.648438 334.824219 C 321.097656 333.199219 323.578125 334.160156 324.679688 336.527344 Z M 324.679688 336.527344 " fill-opacity="1" fill-rule="nonzero"/></g></g></g></svg>